<svg xmlns="http://www.w3.org/2000/svg" width="61.524" height="7.627" viewBox="0 0 61.524 7.627">
  <g id="Academia.edu_logo" transform="translate(-127.4 -141)">
    <path id="Path_425" data-name="Path 425" d="M150.283,148.118c-1.356,0-2.119-1.483-2.119-3.432,0-1.78.593-3.22,1.991-3.22,1.017,0,1.61.678,1.864,1.907h.466v-1.78a4.317,4.317,0,0,0-2.33-.593,3.8,3.8,0,0,0-3.856,3.983,3.5,3.5,0,0,0,3.813,3.644,4.369,4.369,0,0,0,2.5-.678l.169-2.034h-.466C151.935,147.483,151.215,148.118,150.283,148.118Z" transform="translate(-10.892)" fill="#181c52"/>
    <path id="Path_426" data-name="Path 426" d="M170.476,147.795l-2.669-6.695H165.9l.339.847-2.246,5.847c-.085.3-.339.339-.593.381v.381h2.2v-.381h0c-.593-.042-.932-.127-.678-.763a10.184,10.184,0,0,0,.424-1.1h2.712l.381.975a1.864,1.864,0,0,1,.085.424c0,.339-.3.466-.847.466v.381h3.475v-.381C170.773,148.134,170.561,148.049,170.476,147.795Zm-4.915-2.2c.424-1.059.89-2.288,1.059-2.754l1.1,2.754Z" transform="translate(-20.746 -0.058)" fill="#181c52"/>
    <path id="Path_427" data-name="Path 427" d="M186.747,141.2H183.4v.381c.72.085.805.169.805.72v5.169c0,.551-.085.636-.805.72v.381h3.559a3.616,3.616,0,0,0,3.941-3.813C190.942,142.81,189.586,141.2,186.747,141.2Zm.169,6.991h-.127c-.508,0-.763-.127-.763-.763v-5.763h.424c1.737,0,2.627,1.4,2.627,3.347C189.035,146.963,188.188,148.191,186.917,148.191Z" transform="translate(-32.272 -0.115)" fill="#181c52"/>
    <path id="Path_428" data-name="Path 428" d="M206.983,148.191h-.508c-.636,0-.89-.169-.89-.72v-2.415h1.186c.466,0,.636.254.72.975h.424v-2.458h-.424c-.085.678-.254.975-.72.975h-1.186v-2.881H206.9c.89,0,1.186.339,1.737,1.525h.339l-.042-1.991H203v.381c.72.085.805.169.805.72v5.169c0,.551-.085.636-.805.72v.381h6.017l.339-2.2h-.424C208.169,147.725,207.873,148.191,206.983,148.191Z" transform="translate(-43.567 -0.115)" fill="#181c52"/>
    <path id="Path_429" data-name="Path 429" d="M228.152,147.6l-.636-5.212c0-.551.212-.72.89-.763V141.2h-2.585c0,.127-.042.212-.042.3l-.127.339-1.525,4.364-1.61-4.322a1.776,1.776,0,0,1-.169-.636h-2.669v.381c.678.042.89.212.89.763l-.678,5.212c-.042.466-.254.593-.89.636v.381h2.5v-.381c-.169,0-.3-.042-.424-.042-.254-.085-.551-.339-.466-.975.085-.805.381-3.051.508-3.941l1.991,5.381h.847l1.822-5.3.508,3.941v.254c0,.508-.254.636-1.017.678v.381H229v-.381C228.449,148.191,228.237,148.107,228.152,147.6Z" transform="translate(-52.787 -0.115)" fill="#181c52"/>
    <path id="Path_430" data-name="Path 430" d="M244.7,141.624c.72.085.805.169.805.72v5.169c0,.551-.085.636-.805.72v.381h3.432v-.381c-.72-.085-.805-.169-.805-.72v-5.169c0-.551.085-.636.805-.72V141.2H244.7Z" transform="translate(-67.598 -0.115)" fill="#181c52"/>
    <path id="Path_431" data-name="Path 431" d="M134.518,147.795l-2.669-6.695h-1.907l.339.847-2.288,5.847c-.085.3-.339.339-.593.381v.381h2.2v-.381h0c-.593-.042-.932-.127-.678-.763a10.18,10.18,0,0,0,.424-1.1h2.712l.381.975a1.865,1.865,0,0,1,.085.424c0,.339-.3.466-.847.466v.381h3.474v-.381C134.857,148.134,134.6,148.049,134.518,147.795Zm-4.915-2.2c.424-1.059.89-2.288,1.059-2.754l1.1,2.754Z" transform="translate(0 -0.058)" fill="#181c52"/>
    <path id="Path_432" data-name="Path 432" d="M261.63,148.107c-.127-.042-.169-.127-.254-.254l-2.669-6.652H256.8l.339.847-2.246,5.847c-.085.3-.339.339-.593.381v.381h2.2v-.381h0c-.593-.042-.932-.127-.678-.763a10.184,10.184,0,0,0,.424-1.1h2.712l.381.975a1.866,1.866,0,0,1,.085.424c0,.339-.3.466-.847.466v.381h3.475v-.381C261.842,148.191,261.715,148.191,261.63,148.107Zm-5.127-2.458c.424-1.059.89-2.288,1.059-2.754l1.1,2.754Z" transform="translate(-73.13 -0.115)" fill="#181c52"/>
  </g>
</svg>
