<svg xmlns="http://www.w3.org/2000/svg" width="42.131" height="23.408" viewBox="0 0 42.131 23.408">
  <g id="Group_76" data-name="Group 76" transform="translate(-10.001 -227.733)">
    <g id="Group_75" data-name="Group 75" transform="translate(10.001 227.733)">
      <path id="Path_433" data-name="Path 433" d="M21.659,227.778a6.861,6.861,0,0,0-2.9,1.147,7.186,7.186,0,0,0-1.417,1.443,7.55,7.55,0,0,0-.863,1.918,7.709,7.709,0,0,0,.073,3.644,14.734,14.734,0,0,1,.461,2.728c.152,1.825-.191,3.091-1,3.677a3.156,3.156,0,0,1-2.03.527,3.413,3.413,0,0,0-2.181.6,4.931,4.931,0,0,0-1.41,1.377A3.572,3.572,0,0,0,10,246.783a5.549,5.549,0,0,0,.112,1.285,4.042,4.042,0,0,0,3.934,3.057,3.689,3.689,0,0,0,2.807-1.232,3.806,3.806,0,0,0,1.081-2.761,4.228,4.228,0,0,0-.408-1.911c-.626-1.568-.461-2.7.547-3.69a5.175,5.175,0,0,1,2.34-1.213,10.193,10.193,0,0,1,3.44-.132c1.839.316,3.1,1.16,3.512,2.326a3.26,3.26,0,0,1-.237,2.432,4.119,4.119,0,0,0-.336,3.223,3.928,3.928,0,0,0,1.12,1.733,4.823,4.823,0,0,0,5.311.725,3.264,3.264,0,0,0,1.12-.837,3.755,3.755,0,0,0,1.206-2.906,3.989,3.989,0,0,0-.514-1.938,3.241,3.241,0,0,1-.257-2.379,3.47,3.47,0,0,1,2.168-2,5.868,5.868,0,0,1,2.8-.428,5.807,5.807,0,0,1,2,.178,5.273,5.273,0,0,1,2.34,1.219,3.021,3.021,0,0,1,.567,3.638,4.168,4.168,0,0,0-.428,1.911,3.856,3.856,0,0,0,1.035,2.774,3.944,3.944,0,0,0,6.853-2.741,3.973,3.973,0,0,0-2.563-4.092,5.779,5.779,0,0,0-1.338-.158,4.481,4.481,0,0,1-1.423-.191,2.567,2.567,0,0,1-1.647-2.484,13.6,13.6,0,0,1,.435-4.152,7.638,7.638,0,0,0,.105-3.736,6.1,6.1,0,0,0-9.364-3.473,7.443,7.443,0,0,0-1.456,1.457,16.654,16.654,0,0,1-2.116,2.267,2.362,2.362,0,0,1-1.766.547,2.445,2.445,0,0,1-1.779-.738,15.9,15.9,0,0,1-1.9-2.076,7.672,7.672,0,0,0-1.463-1.456A6.215,6.215,0,0,0,21.659,227.778ZM32.13,234.6a4.111,4.111,0,0,1,3.091,3.98,4.024,4.024,0,0,1-1.147,2.867,3.527,3.527,0,0,1-1.628,1.074,3.424,3.424,0,0,1-1.364.172,3.416,3.416,0,0,1-1.364-.172,3.5,3.5,0,0,1-1.615-1.061,4.068,4.068,0,0,1-.87-4.4A4.237,4.237,0,0,1,30,234.6,5.779,5.779,0,0,1,32.13,234.6Z" transform="translate(-10.001 -227.733)" fill="#181c52"/>
    </g>
  </g>
</svg>
