<svg xmlns="http://www.w3.org/2000/svg" width="30" height="30" viewBox="0 0 30 30">
  <path id="LinkedIn_alt_" data-name="LinkedIn (alt)" d="M98.889,353.5H73.321A2.183,2.183,0,0,0,71.1,355.65v25.7a2.184,2.184,0,0,0,2.217,2.151H98.889a2.183,2.183,0,0,0,2.215-2.151v-25.7A2.183,2.183,0,0,0,98.889,353.5Zm-18.2,24.263H76.539v-12.4h4.149Zm-2.074-14.092h-.028a2.371,2.371,0,1,1,.028,0Zm17.03,14.092H91.5V371.13c0-1.667-.6-2.8-2.1-2.8a2.266,2.266,0,0,0-2.128,1.508,2.768,2.768,0,0,0-.138,1v6.925H82.982s.054-11.235,0-12.4h4.147v1.758a4.119,4.119,0,0,1,3.737-2.05c2.73,0,4.777,1.771,4.777,5.581Zm-8.541-10.6.027-.039v.039Z" transform="translate(-71.104 -353.501)" fill="#181c52"/>
</svg>
