<svg xmlns="http://www.w3.org/2000/svg" width="58.78" height="17.688" viewBox="0 0 58.78 17.688">
  <path id="Path_424" data-name="Path 424" d="M28.438,17.374a3.362,3.362,0,0,0,2.247-3.291c0-2.327-1.7-3.766-4.416-3.766h-3.39V23.762h1.931V17.927h.809c.985,0,1.794.316,3.569,3.075l1.773,2.76h2.306c-.925-1.281-1.261-1.734-1.833-2.661A10.982,10.982,0,0,0,28.438,17.374Zm-2.386-1.183H24.811V11.973h1.242c1.873,0,2.622.769,2.642,2.03C28.714,15.127,28.123,16.191,26.053,16.191ZM13.464,10.139a6.906,6.906,0,1,0-.039,13.8,6.909,6.909,0,1,0,.039-13.8Zm0,12.026a5.042,5.042,0,0,1-5.223-5.126,5.031,5.031,0,0,1,5.223-5.126,5.037,5.037,0,0,1,5.245,5.126A5.048,5.048,0,0,1,13.464,22.165ZM35.2,17.059a5.117,5.117,0,0,1,5.362-5.146,8.849,8.849,0,0,1,4.633,1.4v-2.07a11.7,11.7,0,0,0-4.614-1.1,7,7,0,0,0-7.373,7.1,6.871,6.871,0,0,0,7.255,6.7,9.857,9.857,0,0,0,4.869-1.183v-2.11a8.8,8.8,0,0,1-4.692,1.518C37.406,22.165,35.2,20.075,35.2,17.059Zm12.826,6.7h1.932V10.316H48.025Zm9.85-13.445H52.651V23.762h5.243a6.794,6.794,0,0,0,7.137-6.723C65.03,13.865,62.842,10.316,57.875,10.316Zm-.218,11.711H54.583V12.052h2.977c3.765,0,5.481,2.286,5.481,4.988C63.04,18.7,62.034,22.027,57.657,22.027ZM48.991,6.251a1.267,1.267,0,1,0,1.267,1.266A1.27,1.27,0,0,0,48.991,6.251Z" transform="translate(-6.25 -6.251)" fill="#181c52"/>
</svg>
