<svg xmlns="http://www.w3.org/2000/svg" width="27.211" height="27.211" viewBox="0 0 27.211 27.211">
  <path id="Path_423" data-name="Path 423" d="M46.691,129.075a2.122,2.122,0,0,0-3.411-.117.623.623,0,0,0-.132.373c-.012.788-.006,1.577-.006,2.366s0,1.561,0,2.341a1.392,1.392,0,0,0,.661,1.267,2.721,2.721,0,0,0,1.122.4,1.974,1.974,0,0,0,1.808-.549,2.845,2.845,0,0,0,.664-1.273,6.714,6.714,0,0,0,.071-2.66A4.9,4.9,0,0,0,46.691,129.075ZM31,121v27.211H58.211V121Zm18,13.463a4.565,4.565,0,0,1-3.308,2.166,4.933,4.933,0,0,1-2.324-.245l-.187-.065c0,.747,0,1.468,0,2.189,0,.665,0,1.331.017,2a5.442,5.442,0,0,0,.091.753.366.366,0,0,0,.409.338c.271,0,.542.007.813.008.181,0,.282.072.261.267a.927.927,0,0,0,0,.1c0,.562-.011.54-.581.532q-2.153-.03-4.306,0c-.56.008-.573.029-.57-.545,0-.329.021-.35.347-.352.189,0,.378,0,.567,0,.289-.01.429-.108.465-.4a9.78,9.78,0,0,0,.064-1.152c0-3.27,0-6.54.009-9.809a1.192,1.192,0,0,0-.708-1.186c-.6-.3-.713-.367-.7-.7.008-.215.161-.246.3-.306a27.424,27.424,0,0,1,2.852-1.206c.275-.079.391,0,.44.292.091.543.114.729.143.931a11.92,11.92,0,0,1,1.321-.855,3.785,3.785,0,0,1,5.438,2.918A6.188,6.188,0,0,1,49,134.463Z" transform="translate(-31 -121)" fill="#181c52"/>
</svg>
