<svg id="logo-PBN" xmlns="http://www.w3.org/2000/svg" width="91.211" height="22.273" viewBox="0 0 91.211 22.273">
  <path id="Path_434" data-name="Path 434" d="M113.2,62.551a5.747,5.747,0,0,1,.958-.067,1.582,1.582,0,0,1,1.069.312,1.047,1.047,0,0,1,.334.8,1.136,1.136,0,0,1-.29.824,1.6,1.6,0,0,1-1.181.423l-.4-.045v1.537h-.49Zm.49,1.849.4.045c.6,0,.958-.29.958-.824s-.356-.757-.913-.757l-.468.045Z" transform="translate(-87.98 -48.56)" fill="#181c52"/>
  <path id="Path_435" data-name="Path 435" d="M127.9,68.6a1.35,1.35,0,1,1-1.337-1.4A1.33,1.33,0,0,1,127.9,68.6Zm-2.183.022c0,.6.334,1.069.824,1.069s.847-.446.847-1.069-.223-1.047-.824-1.047-.847.535-.847,1.069Z" transform="translate(-97.306 -52.228)" fill="#181c52"/>
  <path id="Path_436" data-name="Path 436" d="M140.1,61.7h.49v4.033h-.49Z" transform="translate(-108.887 -47.954)" fill="#181c52"/>
  <path id="Path_437" data-name="Path 437" d="M145.511,69.572a1.426,1.426,0,0,0,.668.2c.356,0,.535-.178.535-.4s-.134-.356-.512-.49-.735-.446-.735-.78a.917.917,0,0,1,.958-.8,1.27,1.27,0,0,1,.668.178l-.111.356a1.069,1.069,0,0,0-.557-.156.4.4,0,0,0-.446.379c0,.2.156.334.512.468a.974.974,0,0,1,.713.824.926.926,0,0,1-1.025.824,1.582,1.582,0,0,1-.78-.2Z" transform="translate(-113.006 -52.306)" fill="#181c52"/>
  <path id="Path_438" data-name="Path 438" d="M156.79,64.24h.022l.245-.312.824-.958h.579l-1.069,1.136,1.2,1.626h-.624l-.936-1.314-.245.29v1.047h-.49V61.7h.49Z" transform="translate(-121.478 -47.954)" fill="#181c52"/>
  <path id="Path_439" data-name="Path 439" d="M169.86,69.283a4.635,4.635,0,0,0,.045.668h-.446l-.045-.356h-.022a1.025,1.025,0,0,1-.847.4.78.78,0,0,1-.847-.8c0-.668.6-1.025,1.649-1.025V68.1a.557.557,0,0,0-.624-.624,1.337,1.337,0,0,0-.713.2l-.111-.334a1.782,1.782,0,0,1,.913-.245.973.973,0,0,1,1.047,1.114Zm-.49-.735c-.557-.022-1.159.089-1.159.624a.446.446,0,0,0,.468.468.691.691,0,0,0,.668-.468.557.557,0,0,0,.022-.156Z" transform="translate(-130.336 -52.151)" fill="#181c52"/>
  <path id="Path_440" data-name="Path 440" d="M186.6,62.489a4.367,4.367,0,0,1,.913-.089,1.509,1.509,0,0,1,1.047.29.8.8,0,0,1,.334.668.913.913,0,0,1-.646.847h0a.98.98,0,0,1,.8.958,1,1,0,0,1-.334.78,1.9,1.9,0,0,1-1.314.356l-.78-.045Zm.49,1.582h.446c.512,0,.824-.29.824-.646s-.334-.624-.847-.624l-.446.045Zm0,1.827h.423c.512,0,.98-.178.98-.735s-.446-.735-.98-.735h-.4Z" transform="translate(-145.027 -48.497)" fill="#181c52"/>
  <path id="Path_441" data-name="Path 441" d="M200.621,62.909a.312.312,0,1,1-.624,0,.312.312,0,0,1,.312-.312.29.29,0,0,1,.312.312Zm-.557,3.52V63.666h.49v2.763Z" transform="translate(-155.438 -48.65)" fill="#181c52"/>
  <path id="Path_442" data-name="Path 442" d="M206.222,61.7h.49v1.738h.022a1.025,1.025,0,0,1,.936-.49c.691,0,1.159.579,1.159,1.4a1.411,1.411,0,0,1-1.248,1.47,1,1,0,0,1-.936-.512h-.022v.446H206.2a6.934,6.934,0,0,0,.022-.713Zm.49,2.941a.646.646,0,0,0,.022.178.758.758,0,0,0,.757.579c.535,0,.847-.423.847-1.069s-.29-1.025-.824-1.025a.8.8,0,0,0-.757.624.78.78,0,0,0-.022.2Z" transform="translate(-160.26 -47.954)" fill="#181c52"/>
  <path id="Path_443" data-name="Path 443" d="M220.9,61.7h.49v4.033h-.49Z" transform="translate(-171.685 -47.954)" fill="#181c52"/>
  <path id="Path_444" data-name="Path 444" d="M227.221,62.909a.312.312,0,1,1-.624,0,.312.312,0,0,1,.312-.312.29.29,0,0,1,.312.312Zm-.557,3.52V63.666h.49v2.763Z" transform="translate(-176.112 -48.65)" fill="#181c52"/>
  <path id="Path_445" data-name="Path 445" d="M234.7,68.6a1.35,1.35,0,1,1-1.337-1.4A1.33,1.33,0,0,1,234.7,68.6Zm-2.183.022c0,.6.334,1.069.824,1.069s.847-.446.847-1.069-.223-1.047-.824-1.047-.847.535-.847,1.069Z" transform="translate(-180.312 -52.228)" fill="#181c52"/>
  <path id="Path_446" data-name="Path 446" d="M248.562,69.674a1.6,1.6,0,0,1-.4,1.27,1.515,1.515,0,0,1-1,.334,1.782,1.782,0,0,1-.913-.223l.134-.379a1.493,1.493,0,0,0,.8.223c.512,0,.891-.267.891-.958v-.334h-.022a.98.98,0,0,1-.869.468A1.23,1.23,0,0,1,246,68.739a1.419,1.419,0,0,1,1.248-1.448.913.913,0,0,1,.869.468h.022v-.446h.446a7.176,7.176,0,0,0-.022.757Zm-.49-1.27a.646.646,0,0,0-.022-.223.713.713,0,0,0-.691-.535c-.468,0-.824.4-.824,1.047s.29.98.824.98a.713.713,0,0,0,.691-.512.869.869,0,0,0,.045-.267Z" transform="translate(-191.193 -52.297)" fill="#181c52"/>
  <path id="Path_447" data-name="Path 447" d="M260.922,68.113c0-.334,0-.6-.022-.869h.446V67.8h.022a.824.824,0,0,1,.78-.6h.134v.468H262.1a.691.691,0,0,0-.668.646,1.52,1.52,0,0,0-.022.223v1.47h-.49Z" transform="translate(-202.773 -52.228)" fill="#181c52"/>
  <path id="Path_448" data-name="Path 448" d="M270.46,69.283a4.611,4.611,0,0,0,.045.668h-.446l-.045-.356h-.022a1.025,1.025,0,0,1-.847.4.78.78,0,0,1-.847-.8c0-.668.6-1.025,1.649-1.025V68.1a.557.557,0,0,0-.624-.624,1.337,1.337,0,0,0-.713.2l-.111-.334a1.782,1.782,0,0,1,.913-.245.973.973,0,0,1,1.047,1.114Zm-.49-.735c-.557-.022-1.159.089-1.159.624a.446.446,0,0,0,.468.468.691.691,0,0,0,.668-.468.576.576,0,0,0,.022-.156Z" transform="translate(-208.523 -52.151)" fill="#181c52"/>
  <path id="Path_449" data-name="Path 449" d="M280.479,65.421V63.06H280.1v-.4h.379V62.5a1.112,1.112,0,0,1,1.2-1.2,1.382,1.382,0,0,1,.691.178l-.134.379a1.069,1.069,0,0,0-.579-.156c-.535,0-.691.379-.691.8v.134h1.6v2.785h-.49V63.06h-1.092v2.362Z" transform="translate(-217.696 -47.643)" fill="#181c52"/>
  <path id="Path_450" data-name="Path 450" d="M296.16,69.283a4.611,4.611,0,0,0,.045.668h-.446l-.045-.356h-.022a1.025,1.025,0,0,1-.847.4.78.78,0,0,1-.847-.8c0-.668.6-1.025,1.649-1.025V68.1a.557.557,0,0,0-.624-.624,1.337,1.337,0,0,0-.713.2l-.111-.334a1.782,1.782,0,0,1,.913-.245.973.973,0,0,1,1.047,1.114Zm-.49-.735c-.557-.022-1.159.089-1.159.624a.446.446,0,0,0,.468.468.691.691,0,0,0,.668-.468.579.579,0,0,0,.022-.156Z" transform="translate(-228.498 -52.151)" fill="#181c52"/>
  <path id="Path_451" data-name="Path 451" d="M312.8,66.432V62.6h.557l1.225,1.938a10.762,10.762,0,0,1,.691,1.248h.022c-.045-.512-.067-.98-.067-1.582V62.6h.468v3.832h-.49l-1.248-1.938a11.145,11.145,0,0,1-.713-1.292h-.022c.022.49.045.936.045,1.582v1.649Z" transform="translate(-243.111 -48.653)" fill="#181c52"/>
  <path id="Path_452" data-name="Path 452" d="M330.66,69.283a4.6,4.6,0,0,0,.044.668h-.446l-.045-.356h-.022a1.025,1.025,0,0,1-.847.4.78.78,0,0,1-.847-.8c0-.668.6-1.025,1.649-1.025V68.1a.557.557,0,0,0-.624-.624,1.337,1.337,0,0,0-.713.2l-.111-.334a1.782,1.782,0,0,1,.913-.245.973.973,0,0,1,1.047,1.114Zm-.49-.757c-.557-.022-1.159.089-1.159.624a.446.446,0,0,0,.468.468.691.691,0,0,0,.668-.468.58.58,0,0,0,.022-.156Z" transform="translate(-255.311 -52.151)" fill="#181c52"/>
  <path id="Path_453" data-name="Path 453" d="M344.117,69.405c0,.29,0,.535.022.757h-.446v-.446h-.022a1.025,1.025,0,0,1-.913.512c-.423,0-.958-.245-.958-1.2V67.4h.49v1.515c0,.535.156.891.624.891a.713.713,0,0,0,.668-.468.691.691,0,0,0,.045-.245V67.4h.49Z" transform="translate(-265.65 -52.384)" fill="#181c52"/>
  <path id="Path_454" data-name="Path 454" d="M356.49,64.24h.022l.245-.312.824-.958h.6l-1.069,1.136,1.2,1.626h-.624l-.936-1.314-.267.29v1.047H356V61.7h.49Z" transform="translate(-276.686 -47.954)" fill="#181c52"/>
  <path id="Path_455" data-name="Path 455" d="M369.7,68.6a1.35,1.35,0,1,1-1.337-1.4A1.33,1.33,0,0,1,369.7,68.6Zm-2.183.022c0,.6.334,1.069.824,1.069s.847-.446.847-1.069-.223-1.047-.824-1.047-.847.535-.847,1.069Z" transform="translate(-285.235 -52.228)" fill="#181c52"/>
  <path id="Path_456" data-name="Path 456" d="M380.99,67.4l.379,1.4c.067.312.156.6.2.869h.022c.067-.29.156-.579.245-.869l.446-1.4h.423l.423,1.381c.111.334.178.624.245.891h.022a8.24,8.24,0,0,1,.2-.891L384,67.4h.49l-.891,2.763h-.446l-.423-1.314a9.16,9.16,0,0,1-.245-.913h-.022a8.122,8.122,0,0,1-.245.913l-.446,1.314h-.446L380.5,67.4Z" transform="translate(-295.728 -52.384)" fill="#181c52"/>
  <path id="Path_457" data-name="Path 457" d="M401.66,69.283a4.62,4.62,0,0,0,.045.668h-.446l-.045-.356h-.022a1.025,1.025,0,0,1-.847.4.78.78,0,0,1-.847-.8c0-.668.6-1.025,1.649-1.025V68.1a.557.557,0,0,0-.624-.624,1.337,1.337,0,0,0-.713.2l-.111-.334a1.782,1.782,0,0,1,.913-.245.973.973,0,0,1,1.047,1.114Zm-.49-.757c-.557-.022-1.159.089-1.159.624a.446.446,0,0,0,.468.468.691.691,0,0,0,.668-.468.58.58,0,0,0,.022-.156Z" transform="translate(-310.493 -52.151)" fill="#181c52"/>
  <path id="Path_458" data-name="Path 458" d="M113.3,14.575a13.5,13.5,0,0,1,2.339-.178,3.808,3.808,0,0,1,2.473.691,2.362,2.362,0,0,1,.824,1.849,2.562,2.562,0,0,1-.713,1.894,3.755,3.755,0,0,1-2.651.913,3.342,3.342,0,0,1-.757-.067v3.186H113.3Zm1.515,3.9a2.562,2.562,0,0,0,.757.067c1.136,0,1.849-.579,1.849-1.537s-.646-1.426-1.716-1.426a4.233,4.233,0,0,0-.891.067Z" transform="translate(-88.058 -11.189)" fill="#181c52"/>
  <path id="Path_459" data-name="Path 459" d="M144.6,14.576a12.677,12.677,0,0,1,2.25-.178,4.063,4.063,0,0,1,2.384.535,1.782,1.782,0,0,1,.869,1.582,1.932,1.932,0,0,1-1.4,1.8v.045a2.1,2.1,0,0,1,1.693,2.072,2.25,2.25,0,0,1-.8,1.738,4.745,4.745,0,0,1-3.119.78,15.017,15.017,0,0,1-1.871-.111Zm1.515,3.32h.78c1.069,0,1.649-.49,1.649-1.2s-.6-1.159-1.56-1.159a4.166,4.166,0,0,0-.869.067Zm0,3.854a4.88,4.88,0,0,0,.8.045c.98,0,1.871-.356,1.871-1.4s-.869-1.381-1.916-1.381h-.758Z" transform="translate(-112.384 -11.19)" fill="#181c52"/>
  <path id="Path_460" data-name="Path 460" d="M176.7,23.1V14.7h1.76l2.161,3.609a25.044,25.044,0,0,1,1.426,2.807h.022a34.283,34.283,0,0,1-.134-3.5V14.7h1.426v8.4h-1.6l-2.183-3.7a28.95,28.95,0,0,1-1.493-2.9h-.045c.067,1.092.089,2.183.089,3.587V23.1Z" transform="translate(-137.333 -11.425)" fill="#181c52"/>
  <path id="Path_461" data-name="Path 461" d="M18.752,0A11.187,11.187,0,0,1,27.73,4.523l-3.654-.78L17.393,4.9S13.07,3.275,11.6,2.718A10.828,10.828,0,0,1,18.752,0Z" transform="translate(-9.016)" fill="#181c52" fill-rule="evenodd"/>
  <path id="Path_462" data-name="Path 462" d="M5.725,14.2c1.983,1.225,3.966,2.451,5.9,3.7,3.609-.668,7.33-1.248,10.917-1.938a10.734,10.734,0,0,1,1.938,5.191l-4.991-2.139-8.043,1.56S6.906,17.141,4.7,15.381A4.478,4.478,0,0,1,5.725,14.2Z" transform="translate(-3.653 -11.036)" fill="#181c52" fill-rule="evenodd"/>
  <path id="Path_463" data-name="Path 463" d="M7.152,30.609l13.7-2.451a11.407,11.407,0,0,1-.913,5.124l-2.919-1.76L6.038,33.528,0,23.547A3.253,3.253,0,0,1,.446,22.7C2.74,25.284,7.152,30.609,7.152,30.609Z" transform="translate(0 -17.643)" fill="#181c52" fill-rule="evenodd"/>
  <path id="Path_464" data-name="Path 464" d="M21.3,83.12,35.2,79.8a10.917,10.917,0,0,1-9.424,4.478A12.047,12.047,0,0,1,21.3,83.12Z" transform="translate(-16.555 -62.021)" fill="#181c52" fill-rule="evenodd"/>
</svg>
