<svg xmlns="http://www.w3.org/2000/svg" width="67.83" height="9.177" viewBox="0 0 67.83 9.177">
  <g id="researchgate-vector-logo" transform="translate(-25.6 -285.8)">
    <g id="Group" transform="translate(25.6 285.8)">
      <path id="Fill-1" d="M183.877,311.272a1.546,1.546,0,0,1,1.435-1.458,1.19,1.19,0,0,1,1.108,1.322c0,.1-.011.136-.136.136Zm1.48-2.272c-1.6,0-2.758,1.413-2.758,3.345,0,1.978,1.051,3.153,2.825,3.153a2.336,2.336,0,0,0,1.944-.825l.023-.045-.068-.542-.181.09a3.277,3.277,0,0,1-1.5.328c-1.356,0-1.831-1.175-1.831-2.272v-.215h3.82l.023-.113a3.183,3.183,0,0,0,.023-.463A2.292,2.292,0,0,0,185.358,309Z" transform="translate(-164.857 -306.378)" fill="#181c52"/>
      <path id="Fill-3" d="M547.665,297.7h-.622l-.023.1a2.123,2.123,0,0,1-1.153,1.526l-.068.034v.61h.723v3.944c0,1.107.429,1.571,1.435,1.571a1.759,1.759,0,0,0,1.413-.576l.023-.045-.09-.452-.147.057a2.693,2.693,0,0,1-.825.136c-.429,0-.655-.147-.655-.893v-3.729h1.718v-.848h-1.718V297.7Z" transform="translate(-487.011 -296.355)" fill="#181c52"/>
      <path id="Fill-5" d="M234.442,312.739c-.011.339-.034,1.028-.034,1.424a1.474,1.474,0,0,1-1.085.452.769.769,0,0,1-.836-.825c0-.7.554-1.051,1.627-1.051h.328m1.13,1.39c0-.565.011-1.085.023-1.582.011-.475.023-.927.023-1.379a1.915,1.915,0,0,0-2.147-2.068,2.446,2.446,0,0,0-1.729.746l-.045.045.1.61.17-.09a2.5,2.5,0,0,1,1.288-.305c.825,0,1.2.4,1.2,1.3v.565c-.17-.011-.373-.011-.509-.011-1.6,0-2.644.791-2.644,2.012a1.6,1.6,0,0,0,1.7,1.65,2.125,2.125,0,0,0,1.5-.656.917.917,0,0,0,.961.656,1.944,1.944,0,0,0,.983-.237l.057-.045v-.554h-.136c-.678-.023-.791-.17-.791-.655" transform="translate(-208.053 -306.467)" fill="#181c52"/>
      <path id="Fill-7" d="M286.877,307.936a2.268,2.268,0,0,0-1.356.633V307.8l-.192.09a10.655,10.655,0,0,1-1.627.576l-.1.034v.509l.113.023c.667.136.667.181.667.791V312.8c0,.791-.09.8-.271.836l-.509.079v.6h.147c.09,0,.192-.011.305-.011.26-.011.576-.034.893-.034.339,0,.791.023,1.119.034l.407.023V313.7l-.667-.079c-.169-.023-.271-.034-.271-.836V309.4a1.874,1.874,0,0,1,1.119-.4,1.827,1.827,0,0,1,.588.09l.181.09.136-1.153-.113-.034a2.869,2.869,0,0,0-.565-.068" transform="translate(-254.443 -305.314)" fill="#181c52"/>
      <path id="Fill-9" d="M325.053,314.253a2.317,2.317,0,0,1-1.3.35c-1.209,0-1.966-.87-1.966-2.283,0-1.435.7-2.43,1.718-2.43.678,0,.983.305,1.017,1.028l.011.136h.723v-.136c0-.407.011-.983.045-1.379l.011-.1-.1-.034a4.783,4.783,0,0,0-1.627-.305,3.182,3.182,0,0,0-2.984,3.345c0,1.944,1.085,3.153,2.848,3.153a2.246,2.246,0,0,0,1.876-.848l.023-.045-.113-.576-.181.124Z" transform="translate(-287.261 -306.467)" fill="#181c52"/>
      <path id="Fill-11" d="M499.042,312.739c-.011.339-.034,1.028-.034,1.424a1.474,1.474,0,0,1-1.085.452.769.769,0,0,1-.836-.825c0-.7.554-1.051,1.627-1.051h.328m1.13,1.39c0-.565.011-1.085.023-1.582.011-.475.023-.927.023-1.379a1.915,1.915,0,0,0-2.147-2.068,2.446,2.446,0,0,0-1.729.746l-.045.045.1.61.169-.09a2.5,2.5,0,0,1,1.288-.305c.825,0,1.2.4,1.2,1.3v.565c-.169-.011-.373-.011-.509-.011-1.6,0-2.644.791-2.644,2.012a1.6,1.6,0,0,0,1.7,1.65,2.125,2.125,0,0,0,1.5-.656.917.917,0,0,0,.961.656,1.944,1.944,0,0,0,.983-.237l.057-.045v-.554h-.136c-.678-.023-.791-.17-.791-.655" transform="translate(-442.75 -306.467)" fill="#181c52"/>
      <path id="Fill-13" d="M374.236,293.27v-2.633c0-.949-.2-2.215-1.944-2.215a2.731,2.731,0,0,0-1.56.622V285.8l-.2.1a7.875,7.875,0,0,1-1.627.644l-.1.034v.509l.113.023c.667.136.667.181.667.791v5.368c0,.791-.09.8-.271.836l-.509.079v.6l.339-.011c.283-.011.644-.023,1.017-.023s.768.023,1.062.034l.316.011v-.61l-.509-.079c-.17-.034-.283-.057-.283-.836v-3.447a2.5,2.5,0,0,1,1.243-.407c.814,0,1.108.35,1.108,1.356v2.5c0,.791-.09.8-.271.836l-.509.079v.6l.339-.011c.283-.011.644-.023,1.017-.023s.768.011,1.062.034l.316.011v-.61l-.509-.079c-.2-.034-.305-.045-.305-.836" transform="translate(-330.014 -285.8)" fill="#181c52"/>
      <path id="Fill-15" d="M582.077,311.272a1.546,1.546,0,0,1,1.435-1.458,1.19,1.19,0,0,1,1.108,1.322c0,.1-.023.136-.136.136Zm1.48-2.272c-1.6,0-2.757,1.413-2.757,3.345,0,1.978,1.051,3.153,2.825,3.153a2.337,2.337,0,0,0,1.944-.825l.023-.045-.068-.542-.181.09a3.276,3.276,0,0,1-1.5.328c-1.356,0-1.831-1.175-1.831-2.272v-.215h3.831l.023-.113a3.185,3.185,0,0,0,.023-.463A2.3,2.3,0,0,0,583.557,309Z" transform="translate(-518.055 -306.378)" fill="#181c52"/>
      <path id="Fill-18" d="M434.7,298.851c-.588,0-1.028-.023-1.322-.034l-.249-.011v.61l.565.1c.192.034.373.079.373.825v1.3a3.119,3.119,0,0,1-1.277.226c-1.5,0-2.475-1.288-2.475-3.289,0-1.966.995-3.289,2.486-3.289a1.444,1.444,0,0,1,1.593,1.458l.011.124h.735l-.011-.147c-.045-.655-.057-1.209-.068-1.729v-.09l-.09-.034a6.111,6.111,0,0,0-2.147-.373,3.876,3.876,0,0,0-3.82,4.181c0,2.43,1.435,4.012,3.65,4.012a7.345,7.345,0,0,0,2.509-.429l.079-.034v-1.865c0-.723.124-.78.328-.825l.475-.09v-.61l-.328.011c-.249-.011-.588,0-1.017,0" transform="translate(-383.411 -293.517)" fill="#181c52"/>
      <path id="Fill-20" d="M88.577,311.272a1.546,1.546,0,0,1,1.435-1.458,1.19,1.19,0,0,1,1.108,1.322c0,.1-.023.136-.136.136ZM90.058,309c-1.6,0-2.758,1.413-2.758,3.345,0,1.978,1.051,3.153,2.825,3.153a2.337,2.337,0,0,0,1.944-.825l.023-.045-.068-.542-.181.09a3.277,3.277,0,0,1-1.5.328c-1.356,0-1.831-1.175-1.831-2.272v-.215h3.82l.023-.113a3.181,3.181,0,0,0,.023-.463A2.292,2.292,0,0,0,90.058,309Z" transform="translate(-80.327 -306.378)" fill="#181c52"/>
      <path id="Fill-22" d="M140.628,311.477c-.723-.283-1.164-.486-1.164-.995,0-.7.655-.8,1.04-.8.7,0,1.017.316,1.074,1.051l.011.124h.712l-.011-.147a10.715,10.715,0,0,1-.023-1.345v-.1l-.09-.034a4.6,4.6,0,0,0-1.627-.328c-1.266,0-2.147.712-2.147,1.74,0,1.3.995,1.661,1.786,1.955.735.271,1.2.463,1.2,1.028,0,.588-.441.972-1.13.972-.915,0-1.13-.4-1.232-1.221l-.011-.124H138.3l.011.147a14.784,14.784,0,0,1,.034,1.582v.1l.1.034a5.68,5.68,0,0,0,1.82.283,2.049,2.049,0,0,0,2.192-1.921c0-1.288-1.017-1.684-1.831-2" transform="translate(-125.563 -306.289)" fill="#181c52"/>
      <path id="Fill-24" d="M30.019,297.6a1.408,1.408,0,0,1-1.56,1.469c-.328,0-.509-.011-.712-.023v-2.8c.249-.011.554-.011.825-.011a1.259,1.259,0,0,1,1.447,1.367m1.379,4.509a14.493,14.493,0,0,1-1.706-2.407,2.379,2.379,0,0,0,1.6-2.17c0-1.334-.938-2.136-2.52-2.136-.373,0-.712.011-1.028.023-.271.011-.52.011-.757.011-.463,0-.949,0-1.243-.011l-.147-.011v.61l.565.1c.192.034.373.079.373.825v4.792c0,.757-.181.791-.373.825l-.565.1v.61l.283-.011c.328-.011.814-.034,1.288-.034.542,0,1.243.023,1.514.034h.147v-.61l-.735-.1c-.192-.034-.373-.056-.373-.825v-1.853c.215.011.418.011.7.011a18.839,18.839,0,0,0,1.774,2.735,2.133,2.133,0,0,0,1.7.768,1.488,1.488,0,0,0,.6-.113l.079-.034V302.7h-.136a1.552,1.552,0,0,1-1.04-.588" transform="translate(-25.6 -294.315)" fill="#181c52"/>
    </g>
  </g>
</svg>
