<svg xmlns="http://www.w3.org/2000/svg" width="18.285" height="27.211" viewBox="0 0 18.285 27.211">
  <path id="Path_421" data-name="Path 421" d="M135.516,386.611a1.585,1.585,0,0,0,.165.851,2.089,2.089,0,0,0,1.911.95,2.234,2.234,0,0,0,1.626-.559,1.46,1.46,0,0,0,.352-.566,1.924,1.924,0,0,0,.091-.734v-1.043h-4.145Zm.7-.194h2.743v.158a.892.892,0,0,1-.066.443c-.158.309-.614.472-1.317.472a1.993,1.993,0,0,1-1-.192.706.706,0,0,1-.358-.693Zm3.445-3.641h-4.129l-.015,2.513h.723v-1.524h1.026v1.366h.722v-1.366h.953v1.475h.722ZM136.014,370.9l.255-.085c.491-.158.624-.2.764-.262a1,1,0,0,0,.5-.346.971.971,0,0,0,.947.692,1.134,1.134,0,0,0,.946-.456,1.653,1.653,0,0,0,.236-1.116v-1.117h-4.145v.947h1.84c0,.145-.1.189-.129.267-.061.158-.279.261-.934.449l-.613.182-.165.042v.983l.067-.03C135.728,370.995,135.772,370.982,136.014,370.9Zm1.972-1.742h.953v.14c0,.516-.1.661-.467.661s-.485-.157-.485-.656Zm1.687,11.162h-4.145v2.239h.747V381.27h3.4Zm.012-2.794h-.723v.832h-3.422v.947h3.422v.791h.723Zm-2.1-6.475c-1.275,0-2.124.642-2.124,1.6s.849,1.6,2.124,1.6,2.13-.63,2.13-1.6S138.873,371.055,137.586,371.055Zm.018,2.26c-.911,0-1.329-.208-1.329-.66s.418-.66,1.329-.66,1.293.2,1.293.66S138.508,373.314,137.6,373.314Zm-1.372,1.283a1.266,1.266,0,0,0-.77,1.308,1.422,1.422,0,0,0,.316.987,1.1,1.1,0,0,0,.454.321,2.233,2.233,0,0,0,.886.114h2.543V376.4h-2.525c-.709,0-.91-.108-.91-.494s.2-.493.91-.493h2.525v-.928h-2.543A2.155,2.155,0,0,0,136.232,374.6Zm17.515,19.768c-.349-3.39-2.762-6.172-5.58-8.3-1.212-.9-3.082-1.723-2.929-3.557.321-1.346,1.841-1,2.859-1.256.836-.209,1.834-.188,2.37-.976a2.547,2.547,0,0,0-.069-1.394.576.576,0,0,1,.419-.349.448.448,0,0,0-.14-.7c.446-.244.258-.823.208-1.185.237-.258.551-.321.768-.628a.665.665,0,0,0,0-.627c-1.6-1.316-.328-3.662-1.117-5.23a5.665,5.665,0,0,0-1.463-1.813c-1.981-1.57-5.251-1.29-7.462-.419v.07h.139a4.4,4.4,0,0,1,3.626,3.069c-.328,1.708,1.234,2.266,2.09,3.486a.989.989,0,0,1-.488.628c-.194.418.336.7.349,1.116-.606.3.328.571.071.906a.936.936,0,0,0,.067.907,1.568,1.568,0,0,1-.557,1.743c-1.764.823-4.155.718-5.16,2.79a2.594,2.594,0,0,0,.139,2.161c2.936,2.679,5.446,5.537,5.159,9.554Zm-16.222-5.76a1.862,1.862,0,0,0-2.063,1.779,2.418,2.418,0,0,0,.127.686,2.191,2.191,0,0,0,.358.637h1.791V390.3h-.684v.461h-.7a.923.923,0,0,1-.1-.382c0-.522.461-.82,1.274-.82.91,0,1.426.377,1.426,1.026a1.479,1.479,0,0,1-.412.983h.849a2.139,2.139,0,0,0,.327-1.154A1.992,1.992,0,0,0,137.525,388.605Zm-2.01,5.835h.723v-1.523h1.026v1.365h.722v-1.365h.953v1.474h.722V391.97h-4.145Z" transform="translate(-135.462 -367.229)" fill="#181c52" fill-rule="evenodd"/>
</svg>
