<svg xmlns="http://www.w3.org/2000/svg" xmlns:xlink="http://www.w3.org/1999/xlink" width="51.691" height="14.828" viewBox="0 0 51.691 14.828">
  <defs>
    <clipPath id="clip-path">
      <rect width="51.691" height="14.828" fill="none"/>
    </clipPath>
  </defs>
  <g id="Repeat_Grid_1" data-name="Repeat Grid 1" clip-path="url(#clip-path)">
    <g transform="translate(-483.902 -4485)">
      <path id="scopus-seeklogo.com" d="M24.916,9.308c-.014-3.062-.029-5.732-.033-5.933-.008-.345.024-.365.588-.365s.6.027.723.431c.125.424.374.561.538.3a3.8,3.8,0,0,1,.77-.529,2.513,2.513,0,0,1,1.573-.395,2.376,2.376,0,0,1,2.009.661c.732.643,1.055,1.636,1.055,3.249a4.993,4.993,0,0,1-.3,2.092c-.811,2.1-2.376,2.948-4.748,2.568l-.7-.112v3.6H24.94Zm4.272.63a1.915,1.915,0,0,0,.982-1.079A3.284,3.284,0,0,0,30.566,7C30.579,5.02,30,4.138,28.68,4.138c-.716,0-.75.017-1.507.774l-.774.774V7.68c0,2.154.014,2.2.754,2.422A2.8,2.8,0,0,0,29.188,9.938ZM1.717,11.426A6.605,6.605,0,0,1,.474,11.1c-.47-.2-.488-.227-.409-.7a6.387,6.387,0,0,0,.084-.723c0-.2.09-.193.866.1,1.87.7,3.624.274,3.852-.944.168-.893-.23-1.36-2.179-2.557C1.112,5.309.357,4.515.166,3.628A3.339,3.339,0,0,1,.489,1.47,3.226,3.226,0,0,1,2.423.156a8.147,8.147,0,0,1,3.46.18c.481.2.5.231.5.879,0,.767-.015.772-1.061.4a3.532,3.532,0,0,0-2.8.037c-1.249.842-1,2,.674,3.093,2.259,1.472,2.642,1.778,3,2.4a2.858,2.858,0,0,1-1.779,4.124,6.806,6.806,0,0,1-2.706.156Zm9.17.016C8.947,11.03,7.872,9.308,8,6.813c.128-2.556,1.515-4,3.849-4,1.593,0,2.295.377,2.539,1.37.214.87-.753,1.048-1.466.27-.428-.468-.46-.478-1.237-.422a1.536,1.536,0,0,0-1.264.51,4.138,4.138,0,0,0-.19,4.773,2.566,2.566,0,0,0,1.852.916A4.352,4.352,0,0,0,13.34,9.9a7.287,7.287,0,0,1,.895-.328c.175,0,.107,1.154-.078,1.307A5.547,5.547,0,0,1,10.888,11.442Zm7.3-.02a3.915,3.915,0,0,1-2.812-2.69,6.968,6.968,0,0,1,.092-3.387A4.333,4.333,0,0,1,17.3,3.182a5.324,5.324,0,0,1,3.36-.167A3.987,3.987,0,0,1,22.7,4.97a4.22,4.22,0,0,1,.31,2.151,3.837,3.837,0,0,1-.373,2.217,4.506,4.506,0,0,1-.911,1.222,4.5,4.5,0,0,1-3.547.862Zm2.22-1.54a3.264,3.264,0,0,0,.691-.85c.292-.516.331-.741.331-1.911,0-1.206-.033-1.382-.363-1.943A2.246,2.246,0,0,0,18.1,4.26c-1.441.654-1.806,3.779-.608,5.2a2.608,2.608,0,0,0,.751.6,2.757,2.757,0,0,0,2.166-.175ZM35.7,11.437a2.274,2.274,0,0,1-1.408-1.082c-.247-.419-.265-.689-.265-3.9V3.011h1.326l.066,3.115a15.794,15.794,0,0,0,.233,3.407,1.531,1.531,0,0,0,1.979.562,3.906,3.906,0,0,0,1.412-1.251A15.44,15.44,0,0,0,39.258,5.8l.066-2.784H40.65l.066,3.977c.036,2.187.044,4.055.016,4.15-.07.241-1.085.152-1.22-.106a3.412,3.412,0,0,1-.183-.452c-.075-.238-.1-.233-.44.084a4.085,4.085,0,0,1-.788.553,4.669,4.669,0,0,1-2.406.22Zm8.468-.05c-1.122-.259-1.326-.412-1.326-1,0-.761.182-.848.948-.451,1.261.654,2.755.39,3.088-.546.189-.531-.225-.981-1.563-1.7-1.482-.792-1.987-1.184-2.256-1.75a2.114,2.114,0,0,1,1.271-2.931,5.865,5.865,0,0,1,3.151.037c.564.216.6.258.637.789.051.7-.128.788-.832.429a2.974,2.974,0,0,0-1.43-.267c-.785,0-.949.043-1.231.325-.69.69-.287,1.266,1.54,2.2,1.847.949,2.421,1.724,2.19,2.957C48.065,11.015,46.2,11.858,44.163,11.387Zm5.69-9.095A.922.922,0,0,1,49.78.871a1.121,1.121,0,0,1,1.939.7A1.427,1.427,0,0,1,50.593,2.68a1.2,1.2,0,0,1-.739-.388Zm.938-.151c0-.069-.089-.125-.2-.125-.205,0-.263.156-.114.306C50.585,2.428,50.792,2.309,50.792,2.142Zm-.663-.617c0-.452-.018-.475-.212-.28a.473.473,0,0,0-.124.492c.142.447.336.324.336-.212Zm1.261.221c.08-.252-.119-.656-.323-.656-.049,0-.1.209-.12.464C50.912,2.076,51.24,2.219,51.391,1.745Z" transform="translate(483.873 4484.952)" fill="#181c52"/>
    </g>
  </g>
</svg>
