<svg xmlns="http://www.w3.org/2000/svg" width="43.399" height="17.241" viewBox="0 0 43.399 17.241">
  <path id="Path_424" data-name="Path 424" d="M29.685,111.388a4.11,4.11,0,0,0-.6-5c-.91-.955-1.895-1.492-4.312-2.328-2.1-.731-2.805-1.238-3.223-2.3a2.539,2.539,0,0,1,1.373-3.3,2.679,2.679,0,0,1,1.865-.313,4.814,4.814,0,0,1,4.088,2.566c.731,1.567.91,1.238.567-1.1-.224-1.507-.3-1.805-.522-1.805a.422.422,0,0,0-.328.134,3.147,3.147,0,0,1-1.313-.3,5.77,5.77,0,0,0-6.1,1.164l-.612.671.09,1.03c.1.955.09,1.044-.254,1.358s-.358.373-.164,1.03a5.117,5.117,0,0,0,2.4,2.626,26.465,26.465,0,0,0,2.611,1.074c.955.328,1.925.686,2.163.806a3.037,3.037,0,0,1,1.507,3.312,3.594,3.594,0,0,1-2.447,2.4,4.974,4.974,0,0,1-4.939-1.328l-.6-.642-.328.612c-.612,1.164.03,1.85,2.193,2.3C25.806,114.685,28.566,113.611,29.685,111.388Zm-9.43-4.118c-.731-1.432-1.955-2.238-5-3.268-2.462-.836-3.312-1.671-3.312-3.282a2.354,2.354,0,0,1,.85-1.895A2.7,2.7,0,0,1,15,98.109a4.669,4.669,0,0,1,4.327,2.507c.492,1.015.821,1.194.821.463a25.985,25.985,0,0,0-.537-3.4c-.03-.03-.224.03-.433.134-.313.164-.463.149-1.149-.149a8.374,8.374,0,0,0-3.894-.3A5.125,5.125,0,0,0,10.811,100a4.6,4.6,0,0,0,.149,3.387c.716,1.447,1.776,2.134,4.983,3.238,1.94.671,2.507,1,3,1.7a2.722,2.722,0,0,1,.164,3.059,3.338,3.338,0,0,1-1.641,1.507,5.109,5.109,0,0,1-4-.075,4.8,4.8,0,0,1-2.447-2.566c-.492-1.059-.671-1.253-.821-.865a11.248,11.248,0,0,0,1.03,3.939,6.529,6.529,0,0,0,3.775.821,4.38,4.38,0,0,0,2.611-.463,4.731,4.731,0,0,0,2.566-2.4,3.721,3.721,0,0,0,.477-2.1A3.462,3.462,0,0,0,20.256,107.27Zm30.736-9.385c-2.119,0-2.566.03-2.566.209,0,.134.283.283.791.388a2.056,2.056,0,0,1,1.686,1.4,100.039,100.039,0,0,1,.179,11.056c-.09,0-2.626-2.835-5.655-6.3s-5.625-6.431-5.759-6.565c-.194-.194-.507-.269-1.164-.269h-.9l.656.6a5.056,5.056,0,0,1,1,1.388c.343.746.358.925.433,5.625l.075,4.849.418.6.4.6v-4.506a40.453,40.453,0,0,1,.134-4.581c.164-.1.6.358,6.117,6.744,3.059,3.536,4.774,5.4,4.924,5.371.209-.045.254-.836.328-7.58.1-8.251.09-8.221.985-8.534C54.11,98,53.617,97.885,50.991,97.885Zm-8.669,15.666c-.85-.134-1.641-1.044-4.028-4.536l-2.074-3.059.343-.224a7.029,7.029,0,0,0,2.238-2.447,3.188,3.188,0,0,0,.269-1.82c-.149-2.313-1.462-3.491-4.178-3.8a11.325,11.325,0,0,0-1.462-.119c-.119.015-.985.06-1.895.075l-1.686.06v.463a16.122,16.122,0,0,0,.239,1.835c.179,1.029.194,1.462.075,1.686A10.989,10.989,0,0,0,30,104.226c0,2.044.03,2.313.328,2.88a3.594,3.594,0,0,1,.343,2.044c0,1.432-.075,1.731-1.015,3.73a1.97,1.97,0,0,1-.806.671c-.358.164-.642.358-.642.448a28.932,28.932,0,0,0,6.222-.03c.03-.09-.209-.209-.582-.269a2.354,2.354,0,0,1-1.686-.88c-.194-.283-.224-.85-.194-3.312l.045-2.969.91-.045a3.821,3.821,0,0,1,1.283.1c.254.09.925.985,2.134,2.88,2.119,3.282,2.6,3.894,3.491,4.416a2.828,2.828,0,0,0,1.835.4c.9,0,1.209-.06,1.4-.254C43.367,113.745,43.307,113.715,42.323,113.551ZM31.968,105.39a35.152,35.152,0,0,1-.09-6.326.87.87,0,0,1,.4-.492,4.734,4.734,0,0,1,2.805.3c2.865,1.238,2.969,5.759.164,6.55A8.162,8.162,0,0,1,31.968,105.39Z" transform="translate(-10.182 -97.251)" fill="#181c52"/>
</svg>
