<svg xmlns="http://www.w3.org/2000/svg" width="88.014" height="88.609" viewBox="0 0 88.014 88.609">
  <g id="Group_74" data-name="Group 74" transform="translate(202.269 1924.794)">
    <g id="Group_71" data-name="Group 71">
      <g id="Group_69" data-name="Group 69">
        <path id="Path_416" data-name="Path 416" d="M-147.657-1906.559c-2.584-1.616-7.8,1.772-10.571,4.547-1.94,1.939-19.469,18.767-20.2,19.5-.932.931-6.109-.715-7.385-1.157a.689.689,0,0,0-.558.047l-1.174.647a.689.689,0,0,0-.2,1.042c1.522,1.847,5.929,7.041,7.4,7.041,2.073,0,7.608-2.718,13.185-8.439q1.668-1.708,3.219-3.285l2.521,14.888a.537.537,0,0,0,.909.29l1.087-1.087a2.49,2.49,0,0,0,.716-1.5l2.072-19.929c3.681-3.656,5.919-5.815,5.919-5.815S-145.073-1904.943-147.657-1906.559Z" fill="#ef1749"/>
      </g>
      <g id="Group_70" data-name="Group 70">
        <path id="Path_417" data-name="Path 417" d="M-173.3-1890.283l5.429-5.234-11.173,1.162a2.468,2.468,0,0,0-1.5.714l-1.087,1.087a.536.536,0,0,0,.288.909Z" fill="#ef1749"/>
      </g>
    </g>
    <path id="Path_418" data-name="Path 418" d="M-133.171-1899.466v5.649h8.721l-33.231,32.912-10.351-10.351-25.849,25.8,3.995,3.995,21.854-21.8,10.351,10.351,37.226-36.907v8.721h5.649v-18.365Z" fill="#ef1749"/>
    <g id="Group_72" data-name="Group 72">
      <path id="Path_419" data-name="Path 419" d="M-193.687-1855.89a2.079,2.079,0,0,1-1.76-.969,44.176,44.176,0,0,1-6.822-23.631,44.355,44.355,0,0,1,44.3-44.3,44.186,44.186,0,0,1,34.186,16.122,2.079,2.079,0,0,1-.28,2.928,2.08,2.08,0,0,1-2.928-.28,40.04,40.04,0,0,0-30.978-14.61,40.19,40.19,0,0,0-40.145,40.144,40.02,40.02,0,0,0,6.179,21.409,2.082,2.082,0,0,1-.648,2.87A2.076,2.076,0,0,1-193.687-1855.89Z" fill="#fff"/>
    </g>
    <g id="Group_73" data-name="Group 73">
      <path id="Path_420" data-name="Path 420" d="M-157.964-1836.185a44.4,44.4,0,0,1-20.674-5.11,2.081,2.081,0,0,1-.867-2.811,2.082,2.082,0,0,1,2.811-.867,40.214,40.214,0,0,0,18.73,4.628,40.013,40.013,0,0,0,39.577-33.382,2.082,2.082,0,0,1,2.4-1.7,2.08,2.08,0,0,1,1.7,2.4A44.163,44.163,0,0,1-157.964-1836.185Z" fill="#fff"/>
    </g>
  </g>
</svg>
