<svg xmlns="http://www.w3.org/2000/svg" width="92.405" height="88.752" viewBox="0 0 92.405 88.752">
  <g id="Group_60" data-name="Group 60" transform="translate(-245.876 1925.192)">
    <g id="Group_56" data-name="Group 56">
      <g id="Group_54" data-name="Group 54">
        <path id="Path_405" data-name="Path 405" d="M325.929-1880.757c-.906-3.927-8.948-5.632-14.137-5.632-3.628,0-35.753-.655-37.121-.655-1.742,0-5.044-6.38-5.822-7.986a.913.913,0,0,0-.567-.477l-1.7-.494a.911.911,0,0,0-1.162.786c-.3,3.151-1.041,12.128.331,13.5,1.938,1.938,9.655,4.571,20.22,4.437q3.158-.041,6.081-.063l-11.564,16.278a.71.71,0,0,0,.579,1.121H283.1a3.3,3.3,0,0,0,2.076-.736l20.571-16.7c6.86.022,10.971.1,10.971.1S326.834-1876.83,325.929-1880.757Z" fill="#ef1749"/>
      </g>
      <g id="Group_55" data-name="Group 55">
        <path id="Path_406" data-name="Path 406" d="M286.734-1889.511l9.971.182-11.534-9.36a3.265,3.265,0,0,0-2.072-.737h-2.033a.71.71,0,0,0-.581,1.12Z" fill="#ef1749"/>
      </g>
    </g>
    <g id="Group_57" data-name="Group 57">
      <path id="Path_407" data-name="Path 407" d="M330.144-1905.512l4.03,3.756a12.712,12.712,0,0,1-4.832,3.639,15.958,15.958,0,0,1-6.436,1.252,16.3,16.3,0,0,1-6.319-1.213,13.739,13.739,0,0,1-4.949-3.443,13.368,13.368,0,0,1-2.934-5.164h-4.422v-3.287h3.834a10.473,10.473,0,0,1-.039-1.057,10.463,10.463,0,0,1,.039-1.056h-3.834v-3.287H308.7a13.368,13.368,0,0,1,2.934-5.164,13.751,13.751,0,0,1,4.949-3.443,16.3,16.3,0,0,1,6.319-1.213,15.956,15.956,0,0,1,6.436,1.252,12.9,12.9,0,0,1,4.832,3.6l-4.03,3.757a8.939,8.939,0,0,0-6.925-3.209,9.076,9.076,0,0,0-4.617,1.174,7.981,7.981,0,0,0-3.13,3.247h9.9v3.287H314.494a10.463,10.463,0,0,0-.039,1.056,10.473,10.473,0,0,0,.039,1.057h10.877v3.287h-9.9a7.981,7.981,0,0,0,3.13,3.247,9.076,9.076,0,0,0,4.617,1.174A8.817,8.817,0,0,0,330.144-1905.512Z" fill="#ef1749"/>
    </g>
    <g id="Group_58" data-name="Group 58">
      <path id="Path_408" data-name="Path 408" d="M264.051-1845.814a10.157,10.157,0,0,1-6.024,2.525v3.9h-3.481v-3.8a18.966,18.966,0,0,1-4.91-.9,12.329,12.329,0,0,1-3.76-1.881l1.914-4.248a12.581,12.581,0,0,0,3.1,1.637,14.159,14.159,0,0,0,3.656.836v-5.815a26.317,26.317,0,0,1-4.179-1.323,7.378,7.378,0,0,1-2.855-2.142,5.742,5.742,0,0,1-1.149-3.743,6.718,6.718,0,0,1,2.106-4.962,10.017,10.017,0,0,1,6.077-2.524v-3.865h3.481v3.8a15.313,15.313,0,0,1,7.069,2.124l-1.741,4.283a13.833,13.833,0,0,0-5.328-1.81v5.919a25.059,25.059,0,0,1,4.127,1.271,7.23,7.23,0,0,1,2.837,2.124,5.686,5.686,0,0,1,1.149,3.708A6.587,6.587,0,0,1,264.051-1845.814ZM252.63-1859.62a5.434,5.434,0,0,0,1.916.94v-4.944a3.77,3.77,0,0,0-1.95.992,2.263,2.263,0,0,0-.627,1.585A1.781,1.781,0,0,0,252.63-1859.62Zm7.278,10.829a2.046,2.046,0,0,0,.626-1.5,1.8,1.8,0,0,0-.644-1.428,5.674,5.674,0,0,0-1.863-.975v4.805A3.752,3.752,0,0,0,259.908-1848.791Z" fill="#ef1749"/>
    </g>
    <g id="Group_59" data-name="Group 59">
      <path id="Path_409" data-name="Path 409" d="M301.215-1919.944a2.079,2.079,0,0,0,2.41-1.68,2.075,2.075,0,0,0-1.679-2.409,44.533,44.533,0,0,0-7.806-.689A44.191,44.191,0,0,0,250-1880.581a2.077,2.077,0,0,0,2.077,2.077,2.077,2.077,0,0,0,2.076-2.077,40.032,40.032,0,0,1,39.987-39.987A40.357,40.357,0,0,1,301.215-1919.944Z" fill="#fff"/>
      <path id="Path_410" data-name="Path 410" d="M336.64-1892.544a2.074,2.074,0,0,0-2.561-1.438,2.077,2.077,0,0,0-1.437,2.561,40.089,40.089,0,0,1,1.486,10.84,40.033,40.033,0,0,1-39.988,39.988,39.916,39.916,0,0,1-20.638-5.731,2.078,2.078,0,0,0-2.851.7,2.077,2.077,0,0,0,.7,2.852,44.072,44.072,0,0,0,22.785,6.328,44.19,44.19,0,0,0,44.141-44.141A44.224,44.224,0,0,0,336.64-1892.544Z" fill="#fff"/>
    </g>
  </g>
</svg>
