<svg xmlns="http://www.w3.org/2000/svg" width="100.01" height="87.624" viewBox="0 0 100.01 87.624">
  <g id="Group_53" data-name="Group 53" transform="translate(-17.943 1924.466)">
    <g id="Group_49" data-name="Group 49">
      <g id="Group_47" data-name="Group 47">
        <path id="Path_399" data-name="Path 399" d="M103.657-1881.219c-1.011-4.385-9.991-6.289-15.786-6.289-4.051,0-39.923-.73-41.45-.73-1.946,0-5.633-7.124-6.5-8.918a1.017,1.017,0,0,0-.632-.533l-1.9-.551a1.017,1.017,0,0,0-1.3.877c-.34,3.518-1.162,13.542.37,15.074,2.165,2.165,10.781,5.1,22.579,4.955q3.525-.045,6.79-.07l-12.912,18.177a.792.792,0,0,0,.646,1.251H55.83a3.677,3.677,0,0,0,2.317-.822l22.971-18.643c7.66.024,12.251.107,12.251.107S104.668-1876.834,103.657-1881.219Z" fill="#ef1749"/>
      </g>
      <g id="Group_48" data-name="Group 48">
        <path id="Path_400" data-name="Path 400" d="M59.89-1890.994l11.135.2-12.88-10.453a3.656,3.656,0,0,0-2.314-.821h-2.27a.791.791,0,0,0-.649,1.249Z" fill="#ef1749"/>
      </g>
    </g>
    <g id="Group_50" data-name="Group 50">
      <path id="Path_401" data-name="Path 401" d="M44.17-1847.729c7.69.232,17.966,8.416,23.7,4.833,5.309-3.317-2.171-5.939-9.409-8.083-5.18-1.534-7.09-5.339-13.538-8.582-5.407-2.718-11.1-.679-14.869,1.787-2.512,1.643-7.439,3.084-10.447,3.862a2.221,2.221,0,0,0-1.479,3.035l5.134,11.835a2.225,2.225,0,0,0,3.085,1.077c2.993-1.585,8.452-4.126,11.506-3.4,4.359,1.031,14.8,5.083,23.965,4.462,9.452-.64,16.053-2.058,21.488-5.19,5.918-3.411,6.646-5.958.828-5.174-3.3.444-7.763,1.43-11.772,2.145a2.005,2.005,0,0,0-1.512,1.159,5.583,5.583,0,0,1-2.522,2.482c-5.957,3.411-20.542-4.625-24.158-6.244" fill="#ef1749"/>
    </g>
    <g id="Group_51" data-name="Group 51">
      <path id="Path_402" data-name="Path 402" d="M91.725-1913.579c-7.757-.372-17.965-8.417-23.7-4.834-5.308,3.318,2.172,5.939,9.41,8.083,5.179,1.535,7.09,5.34,13.538,8.582,5.407,2.719,11.1.68,14.869-1.786,2.511-1.644,7.439-3.084,10.447-3.862a2.222,2.222,0,0,0,1.479-3.036l-5.134-11.834a2.225,2.225,0,0,0-3.085-1.077c-2.993,1.585-8.452,4.126-11.507,3.4-4.358-1.031-14.8-5.083-23.964-4.462-9.453.641-16.054,2.059-21.488,5.19-5.919,3.411-6.646,5.959-.828,5.175,3.3-.445,7.762-1.43,11.772-2.146a2.007,2.007,0,0,0,1.512-1.158,5.589,5.589,0,0,1,2.522-2.483c5.956-3.41,20.541,4.626,24.157,6.245" fill="#ef1749"/>
    </g>
    <g id="Group_52" data-name="Group 52">
      <path id="Path_403" data-name="Path 403" d="M39.031-1913.932a44.141,44.141,0,0,0-15.224,33.351,43.838,43.838,0,0,0,3.6,17.491,2.077,2.077,0,0,0,1.907,1.254,2.073,2.073,0,0,0,.823-.171,2.077,2.077,0,0,0,1.082-2.73,39.726,39.726,0,0,1-3.261-15.844A39.99,39.99,0,0,1,41.753-1910.8a2.077,2.077,0,0,0,.208-2.929A2.076,2.076,0,0,0,39.031-1913.932Z" fill="#fff"/>
      <path id="Path_404" data-name="Path 404" d="M108.619-1897.763a2.077,2.077,0,0,0-2.721-1.1,2.077,2.077,0,0,0-1.1,2.722,39.75,39.75,0,0,1,3.141,15.564,40.036,40.036,0,0,1-13.449,29.913,2.076,2.076,0,0,0-.174,2.932,2.071,2.071,0,0,0,1.553.7,2.068,2.068,0,0,0,1.378-.524,44.19,44.19,0,0,0,14.846-33.019A43.859,43.859,0,0,0,108.619-1897.763Z" fill="#fff"/>
    </g>
  </g>
</svg>
