<svg xmlns="http://www.w3.org/2000/svg" width="92.754" height="92.487" viewBox="0 0 92.754 92.487">
  <g id="Group_66" data-name="Group 66" transform="translate(-472.164 1925.469)">
    <g id="Group_61" data-name="Group 61">
      <path id="Path_411" data-name="Path 411" d="M557.809-1894.307a10.462,10.462,0,0,1-3.1,3.556,8.567,8.567,0,0,1,2.937,6.918,10.338,10.338,0,0,1-1.8,6,11.957,11.957,0,0,1-5.22,4.111,19.971,19.971,0,0,1-8.06,1.5,31.521,31.521,0,0,1-8.06-1.076,19.533,19.533,0,0,1-6.428-2.774l3-7.179a18.914,18.914,0,0,0,5.449,2.611,20.839,20.839,0,0,0,6.167.979,7.822,7.822,0,0,0,4.373-1.045,3.218,3.218,0,0,0,1.566-2.806,2.907,2.907,0,0,0-1.827-2.773,25.817,25.817,0,0,0-5.678-1.665,51.463,51.463,0,0,1-6.494-1.86,10.453,10.453,0,0,1-4.307-3.034,8.521,8.521,0,0,1-1.794-5.743,9.985,9.985,0,0,1,4.176-8.418,8.593,8.593,0,0,1-2.806-6.787,10.056,10.056,0,0,1,4.307-8.484q4.306-3.2,12.2-3.2a32.64,32.64,0,0,1,7.016.848,18.665,18.665,0,0,1,6.036,2.284l-2.936,7.114a20.039,20.039,0,0,0-10.7-2.807,10.482,10.482,0,0,0-5.22,1.012,3.149,3.149,0,0,0-1.7,2.839,2.593,2.593,0,0,0,1.664,2.48,31.357,31.357,0,0,0,5.384,1.7,49.642,49.642,0,0,1,6.526,1.925,11.045,11.045,0,0,1,4.5,3.263,9.185,9.185,0,0,1,1.892,6.1A9.368,9.368,0,0,1,557.809-1894.307Zm-18.6-2.056a26.835,26.835,0,0,0,5.84,1.762l1.893.457a5.866,5.866,0,0,0,2.284-1.762,4.079,4.079,0,0,0,.849-2.545,3.015,3.015,0,0,0-1.86-2.872,31.054,31.054,0,0,0-5.841-1.892l-1.827-.392a5.65,5.65,0,0,0-2.35,1.8,4.113,4.113,0,0,0-.848,2.512A3.061,3.061,0,0,0,539.209-1896.363Z" fill="#ef1749"/>
    </g>
    <g id="Group_64" data-name="Group 64">
      <g id="Group_62" data-name="Group 62">
        <path id="Path_412" data-name="Path 412" d="M548.921-1862.986c-1.484-4.812-11.659-6.208-18.126-5.738-4.52.328-44.611,2.423-46.316,2.547-2.171.157-6.863-7.494-7.979-9.424a1.138,1.138,0,0,0-.749-.544l-2.167-.461a1.138,1.138,0,0,0-1.377,1.085c-.1,3.953-.2,15.206,1.635,16.791,2.591,2.24,12.445,4.823,25.6,3.7q3.93-.336,7.571-.628l-12.935,21.331a.887.887,0,0,0,.823,1.344l2.533-.184a4.117,4.117,0,0,0,2.52-1.105l24.122-22.669c8.551-.594,13.681-.874,13.681-.874S550.405-1858.175,548.921-1862.986Z" fill="#ef1749"/>
      </g>
      <g id="Group_63" data-name="Group 63">
        <path id="Path_413" data-name="Path 413" d="M499.287-1870.345c3.92-.213,8.248-.447,12.442-.676l-15.221-10.619a4.085,4.085,0,0,0-2.648-.73l-2.534.184a.886.886,0,0,0-.622,1.447Z" fill="#ef1749"/>
      </g>
    </g>
    <g id="Group_65" data-name="Group 65">
      <path id="Path_414" data-name="Path 414" d="M564.872-1881.514a2.087,2.087,0,0,0-2.167-1.982,2.077,2.077,0,0,0-1.982,2.168,40.033,40.033,0,0,1-38.159,41.736c-1.226.055-2.466.054-3.685,0a2.087,2.087,0,0,0-2.17,1.979,2.077,2.077,0,0,0,1.979,2.17q1.022.048,2.055.047c.669,0,1.34-.014,2.007-.044a43.85,43.85,0,0,0,30.6-14.313A43.851,43.851,0,0,0,564.872-1881.514Z" fill="#fff"/>
      <path id="Path_415" data-name="Path 415" d="M525.4-1919.264a2.073,2.073,0,0,0,2.3-1.826,2.076,2.076,0,0,0-1.826-2.3,44.535,44.535,0,0,0-7.077-.246,44.134,44.134,0,0,0-28.311,11.985,44.152,44.152,0,0,0-13.583,27.163,2.077,2.077,0,0,0,1.834,2.294,2.057,2.057,0,0,0,.233.014,2.076,2.076,0,0,0,2.061-1.847,39.989,39.989,0,0,1,12.306-24.6,39.979,39.979,0,0,1,25.646-10.856A40.379,40.379,0,0,1,525.4-1919.264Z" fill="#fff"/>
    </g>
  </g>
</svg>
