<svg xmlns="http://www.w3.org/2000/svg" width="262.232" height="33.601" viewBox="0 0 262.232 33.601">
  <g id="Group_2" data-name="Group 2" transform="translate(-100 -34)">
    <g id="Group_1" data-name="Group 1" transform="translate(100 34)">
      <path id="Path_1" data-name="Path 1" d="M666.253,168.157l4.405-4.9c1.816,2,3.587,3.178,5.812,3.178,2.634,0,4.268-1.589,4.268-5.267V140.685h7.174v20.8c0,3.769-1.089,6.584-3,8.491-1.952,1.952-4.813,2.952-8.265,2.952A13,13,0,0,1,666.253,168.157Z" transform="translate(-666.253 -139.323)" fill="#ef1749"/>
      <path id="Path_2" data-name="Path 2" d="M697.3,166.66v-.091c0-5.313,4.041-7.765,9.808-7.765a17.279,17.279,0,0,1,5.947,1v-.409c0-2.861-1.77-4.45-5.222-4.45a17.922,17.922,0,0,0-6.72,1.316l-1.726-5.267a21.479,21.479,0,0,1,9.445-1.952c3.769,0,6.493,1,8.219,2.723,1.816,1.817,2.633,4.5,2.633,7.765v14.122H713.01v-2.633a9.36,9.36,0,0,1-7.356,3.087C701.067,174.106,697.3,171.472,697.3,166.66Zm15.847-1.59v-1.226a10.71,10.71,0,0,0-4.4-.908c-2.952,0-4.768,1.181-4.768,3.36v.091c0,1.862,1.544,2.952,3.769,2.952C710.967,169.339,713.146,167.567,713.146,165.07Z" transform="translate(-670.644 -140.505)" fill="#ef1749"/>
      <path id="Path_3" data-name="Path 3" d="M730.354,149.283h6.9v3.451c1.589-2.043,3.633-3.9,7.129-3.9,5.222,0,8.264,3.451,8.264,9.036v15.757h-6.9V160.046c0-3.269-1.544-4.95-4.177-4.95s-4.313,1.68-4.313,4.95v13.577h-6.9Z" transform="translate(-675.319 -140.475)" fill="#ef1749"/>
      <path id="Path_4" data-name="Path 4" d="M774.092,140.67h7.492l6.584,21.523L795.3,140.58h5.994l7.129,21.613L815,140.67h7.312l-10.853,32.013h-6.084l-7.174-20.8-7.175,20.8h-6.085Z" transform="translate(-681.504 -139.308)" fill="#ef1749"/>
      <path id="Path_5" data-name="Path 5" d="M830.1,166.66v-.091c0-5.313,4.041-7.765,9.807-7.765a17.285,17.285,0,0,1,5.949,1v-.409c0-2.861-1.77-4.45-5.222-4.45a17.917,17.917,0,0,0-6.72,1.316l-1.726-5.267a21.474,21.474,0,0,1,9.444-1.952c3.769,0,6.494,1,8.219,2.723,1.817,1.817,2.634,4.5,2.634,7.765v14.122h-6.675v-2.633a9.359,9.359,0,0,1-7.356,3.087C833.87,174.106,830.1,171.472,830.1,166.66Zm15.847-1.59v-1.226a10.71,10.71,0,0,0-4.4-.908c-2.952,0-4.768,1.181-4.768,3.36v.091c0,1.862,1.544,2.952,3.769,2.952C843.77,169.339,845.949,167.567,845.949,165.07Z" transform="translate(-689.426 -140.505)" fill="#ef1749"/>
      <path id="Path_6" data-name="Path 6" d="M863.526,139.1h6.9v33.147h-6.9Z" transform="translate(-694.153 -139.099)" fill="#ef1749"/>
      <path id="Path_7" data-name="Path 7" d="M878.969,165.115V149.358h6.9v13.577c0,3.269,1.544,4.95,4.177,4.95s4.313-1.681,4.313-4.95V149.358h6.9V173.7h-6.9v-3.451c-1.589,2.043-3.633,3.9-7.129,3.9C882.011,174.151,878.969,170.7,878.969,165.115Z" transform="translate(-696.337 -140.55)" fill="#ef1749"/>
      <path id="Path_8" data-name="Path 8" d="M912.553,139.1h6.9v33.147h-6.9Z" transform="translate(-701.087 -139.099)" fill="#ef1749"/>
      <path id="Path_9" data-name="Path 9" d="M928.365,139.1h7.265v6.129h-7.265Zm.182,8.808h6.9v24.339h-6.9Z" transform="translate(-703.323 -139.099)" fill="#ef1749"/>
      <path id="Path_10" data-name="Path 10" d="M944.232,139.1h6.9v17.663l8.083-8.854h8.265l-9.264,9.582,9.582,14.757h-7.992l-6.22-9.989-2.452,2.588v7.4h-6.9Z" transform="translate(-705.567 -139.099)" fill="#ef1749"/>
    </g>
  </g>
</svg>
