<svg xmlns="http://www.w3.org/2000/svg" width="150.919" height="19.338" viewBox="0 0 150.919 19.338">
  <g id="Group_133" data-name="Group 133" transform="translate(-100 -34)">
    <g id="Group_1" data-name="Group 1" transform="translate(100 34)">
      <path id="Path_1" data-name="Path 1" d="M666.253,156.5l2.535-2.822a4.512,4.512,0,0,0,3.345,1.829c1.516,0,2.456-.915,2.456-3.031V140.685h4.129v11.969a6.642,6.642,0,0,1-1.725,4.887,6.535,6.535,0,0,1-4.756,1.7A7.48,7.48,0,0,1,666.253,156.5Z" transform="translate(-666.253 -139.901)" fill="#ef1749"/>
      <path id="Path_2" data-name="Path 2" d="M697.3,159.181v-.052c0-3.058,2.326-4.469,5.645-4.469a9.944,9.944,0,0,1,3.423.575V155c0-1.646-1.019-2.561-3.005-2.561a10.314,10.314,0,0,0-3.867.757l-.993-3.031a12.361,12.361,0,0,1,5.436-1.123,6.468,6.468,0,0,1,4.73,1.567,6.106,6.106,0,0,1,1.515,4.469v8.127h-3.841V161.69a5.387,5.387,0,0,1-4.234,1.777C699.468,163.467,697.3,161.951,697.3,159.181Zm9.12-.915v-.706a6.164,6.164,0,0,0-2.535-.522c-1.7,0-2.744.679-2.744,1.934v.052c0,1.072.888,1.7,2.169,1.7C705.165,160.723,706.419,159.7,706.419,158.266Z" transform="translate(-681.958 -144.129)" fill="#ef1749"/>
      <path id="Path_3" data-name="Path 3" d="M730.354,149.091h3.972v1.986a4.955,4.955,0,0,1,4.1-2.247c3.005,0,4.756,1.986,4.756,5.2V163.1h-3.972v-7.814c0-1.882-.888-2.849-2.4-2.849s-2.482.967-2.482,2.849V163.1h-3.972Z" transform="translate(-698.68 -144.022)" fill="#ef1749"/>
      <path id="Path_4" data-name="Path 4" d="M774.092,140.632H778.4l3.789,12.387,4.1-12.439h3.45l4.1,12.439,3.789-12.387h4.208L795.6,159.056h-3.5l-4.129-11.969-4.129,11.969h-3.5Z" transform="translate(-720.806 -139.848)" fill="#ef1749"/>
      <path id="Path_5" data-name="Path 5" d="M830.1,159.181v-.052c0-3.058,2.326-4.469,5.644-4.469a9.948,9.948,0,0,1,3.424.575V155c0-1.646-1.019-2.561-3.005-2.561a10.311,10.311,0,0,0-3.867.757l-.993-3.031a12.359,12.359,0,0,1,5.435-1.123,6.468,6.468,0,0,1,4.73,1.567,6.1,6.1,0,0,1,1.516,4.469v8.127h-3.842V161.69a5.386,5.386,0,0,1-4.234,1.777C832.271,163.467,830.1,161.951,830.1,159.181Zm9.12-.915v-.706a6.164,6.164,0,0,0-2.535-.522c-1.7,0-2.744.679-2.744,1.934v.052c0,1.072.888,1.7,2.169,1.7C837.968,160.723,839.222,159.7,839.222,158.266Z" transform="translate(-749.14 -144.129)" fill="#ef1749"/>
      <path id="Path_6" data-name="Path 6" d="M863.526,139.1H867.5v19.077h-3.972Z" transform="translate(-766.049 -139.099)" fill="#ef1749"/>
      <path id="Path_7" data-name="Path 7" d="M878.969,158.426v-9.068h3.972v7.814c0,1.881.888,2.849,2.4,2.849s2.482-.967,2.482-2.849v-7.814H891.8v14.007h-3.973V161.38a4.956,4.956,0,0,1-4.1,2.247C880.72,163.627,878.969,161.64,878.969,158.426Z" transform="translate(-773.861 -144.289)" fill="#ef1749"/>
      <path id="Path_8" data-name="Path 8" d="M912.553,139.1h3.972v19.077h-3.972Z" transform="translate(-790.85 -139.099)" fill="#ef1749"/>
      <path id="Path_9" data-name="Path 9" d="M928.365,139.1h4.181v3.528h-4.181Zm.1,5.069h3.972v14.007H928.47Z" transform="translate(-798.849 -139.099)" fill="#ef1749"/>
      <path id="Path_10" data-name="Path 10" d="M944.232,139.1H948.2v10.165l4.652-5.1h4.756l-5.332,5.514,5.514,8.493h-4.6l-3.58-5.749-1.411,1.489v4.26h-3.972Z" transform="translate(-806.876 -139.099)" fill="#ef1749"/>
    </g>
  </g>
</svg>
